<svg height="600" viewBox="0 0 900 600" width="900" xmlns="http://www.w3.org/2000/svg"><path d="m0 0h900v600h-900z" fill="#0070f3"/><g fill="#002d8c"><path d="m0 486.7c-20.2-68.8-40.3-137.6-67.3-148.3s-60.8 36.6-96.5 57-73.4 13.8-91.8-12.9-17.5-73.5-23.7-103.2-19.6-42.3-62.4-51c-42.9-8.6-115.3-13.2-108-42 7.3-28.9 94.4-82 101.5-117 7.1-35.1-65.7-52.2-138.5-69.3h486.7z" transform="translate(900)"/><path d="m0-486.7c36.7-9.9 73.5-19.8 95 9.3 21.4 29.1 27.7 97.1 56.2 112.5 28.4 15.3 79.2-22 102.7-15.1 23.5 7 19.8 58.2 45.9 80.2s82.1 14.8 91.8 38.1-26.8 77.1-23.9 109.4 45.3 43.1 71.7 64.9 36.9 54.6 47.3 87.4h-486.7z" transform="translate(0 600)"/></g></svg>