<svg xmlns="http://www.w3.org/2000/svg" xmlns:xlink="http://www.w3.org/1999/xlink" width="256" zoomAndPan="magnify" viewBox="0 0 192 48" height="64" preserveAspectRatio="xMidYMid meet" version="1.0"><defs><g/><clipPath id="id1"><path d="M 7.855469 8.027344 L 56.34375 8.027344 L 56.34375 38.875 L 7.855469 38.875 Z M 7.855469 8.027344 " clip-rule="nonzero"/></clipPath></defs><path fill="#0e5fd8" d="M 19.105469 33.757812 C 15.796875 33.757812 13.023438 31.136719 12.960938 27.820312 C 12.894531 24.425781 15.632812 21.644531 19.003906 21.644531 C 19.101562 21.644531 19.226562 21.652344 19.359375 21.664062 L 19.367188 21.664062 C 21.140625 21.796875 22.769531 20.691406 23.304688 18.988281 C 24.300781 15.539062 27.5 13.128906 31.082031 13.128906 C 33.675781 13.128906 36.050781 14.335938 37.601562 16.445312 C 38.480469 17.636719 39.976562 18.191406 41.417969 17.863281 C 42.03125 17.726562 42.632812 17.65625 43.207031 17.65625 C 47.675781 17.65625 51.308594 21.335938 51.242188 25.832031 C 51.171875 30.25 47.496094 33.757812 43.085938 33.757812 Z M 19.105469 33.757812 " fill-opacity="1" fill-rule="nonzero"/><g clip-path="url(#id1)"><path fill="#083982" d="M 43.207031 38.875 L 19.003906 38.875 C 12.855469 38.875 7.855469 33.863281 7.855469 27.703125 C 7.855469 21.628906 12.71875 16.671875 18.75 16.535156 C 20.683594 11.46875 25.609375 8.015625 31.082031 8.015625 C 34.953125 8.015625 38.65625 9.757812 41.15625 12.710938 C 41.84375 12.601562 42.53125 12.542969 43.203125 12.542969 C 50.449219 12.542969 56.34375 18.449219 56.34375 25.710938 C 56.34375 32.96875 50.449219 38.875 43.207031 38.875 Z M 19.003906 19.296875 C 14.335938 19.296875 10.546875 23.136719 10.617188 27.832031 C 10.6875 32.441406 14.527344 36.105469 19.132812 36.105469 L 43.074219 36.105469 C 48.785156 36.105469 53.527344 31.535156 53.582031 25.808594 C 53.636719 20.03125 48.960938 15.308594 43.207031 15.308594 C 42.457031 15.308594 41.683594 15.398438 40.898438 15.578125 C 40.367188 15.699219 39.808594 15.488281 39.484375 15.050781 C 37.488281 12.339844 34.425781 10.78125 31.082031 10.78125 C 26.464844 10.78125 22.339844 13.886719 21.054688 18.335938 C 20.875 18.960938 20.28125 19.375 19.632812 19.328125 C 19.363281 19.3125 19.1875 19.296875 19.003906 19.296875 Z M 19.003906 19.296875 " fill-opacity="1" fill-rule="nonzero"/></g><g fill="#083982" fill-opacity="1"><g transform="translate(68.447828, 34.473912)"><g><path d="M 1.421875 0 L 1.421875 -16.28125 L 12.203125 -16.28125 L 12.203125 -13.453125 L 4.859375 -13.453125 L 4.859375 -9.5625 L 11.484375 -9.5625 L 11.484375 -6.734375 L 4.859375 -6.734375 L 4.859375 0 Z M 1.421875 0 "/></g></g></g><g fill="#083982" fill-opacity="1"><g transform="translate(81.540359, 34.473912)"><g><path d="M 3.328125 4.75 C 2.835938 4.75 2.421875 4.707031 2.078125 4.625 C 1.742188 4.550781 1.476562 4.46875 1.28125 4.375 L 2.046875 1.75 C 2.648438 1.9375 3.15625 1.984375 3.5625 1.890625 C 3.976562 1.804688 4.304688 1.488281 4.546875 0.9375 L 4.765625 0.34375 L 0.375 -12.21875 L 3.9375 -12.21875 L 6.46875 -3.25 L 6.59375 -3.25 L 9.15625 -12.21875 L 12.734375 -12.21875 L 7.96875 1.40625 C 7.625 2.375 7.070312 3.171875 6.3125 3.796875 C 5.5625 4.429688 4.566406 4.75 3.328125 4.75 Z M 3.328125 4.75 "/></g></g></g><g fill="#083982" fill-opacity="1"><g transform="translate(94.656744, 34.473912)"><g><path d="M 1.359375 0 L 1.359375 -12.21875 L 4.640625 -12.21875 L 4.640625 -10.078125 L 4.765625 -10.078125 C 4.984375 -10.835938 5.351562 -11.410156 5.875 -11.796875 C 6.394531 -12.191406 7.003906 -12.390625 7.703125 -12.390625 C 8.023438 -12.390625 8.328125 -12.347656 8.609375 -12.265625 C 8.890625 -12.191406 9.140625 -12.082031 9.359375 -11.9375 L 8.34375 -9.140625 C 8.1875 -9.222656 8.015625 -9.289062 7.828125 -9.34375 C 7.640625 -9.40625 7.429688 -9.4375 7.203125 -9.4375 C 6.515625 -9.4375 5.929688 -9.203125 5.453125 -8.734375 C 4.984375 -8.265625 4.742188 -7.65625 4.734375 -6.90625 L 4.734375 0 Z M 1.359375 0 "/></g></g></g><g fill="#083982" fill-opacity="1"><g transform="translate(104.251575, 34.473912)"><g><path d="M 4.828125 0.234375 C 3.660156 0.234375 2.691406 -0.0664062 1.921875 -0.671875 C 1.160156 -1.285156 0.78125 -2.195312 0.78125 -3.40625 C 0.78125 -4.320312 0.992188 -5.039062 1.421875 -5.5625 C 1.847656 -6.082031 2.410156 -6.460938 3.109375 -6.703125 C 3.804688 -6.941406 4.554688 -7.097656 5.359375 -7.171875 C 6.421875 -7.273438 7.179688 -7.382812 7.640625 -7.5 C 8.097656 -7.625 8.328125 -7.878906 8.328125 -8.265625 L 8.328125 -8.3125 C 8.328125 -8.820312 8.164062 -9.210938 7.84375 -9.484375 C 7.53125 -9.765625 7.085938 -9.90625 6.515625 -9.90625 C 5.898438 -9.90625 5.410156 -9.769531 5.046875 -9.5 C 4.691406 -9.238281 4.457031 -8.898438 4.34375 -8.484375 L 1.203125 -8.75 C 1.441406 -9.863281 2.019531 -10.742188 2.9375 -11.390625 C 3.863281 -12.046875 5.0625 -12.375 6.53125 -12.375 C 7.4375 -12.375 8.28125 -12.226562 9.0625 -11.9375 C 9.851562 -11.65625 10.492188 -11.207031 10.984375 -10.59375 C 11.472656 -9.988281 11.71875 -9.203125 11.71875 -8.234375 L 11.71875 0 L 8.5 0 L 8.5 -1.6875 L 8.40625 -1.6875 C 8.101562 -1.125 7.65625 -0.660156 7.0625 -0.296875 C 6.476562 0.0546875 5.734375 0.234375 4.828125 0.234375 Z M 5.796875 -2.109375 C 6.546875 -2.109375 7.15625 -2.320312 7.625 -2.75 C 8.101562 -3.1875 8.34375 -3.722656 8.34375 -4.359375 L 8.34375 -5.65625 C 8.21875 -5.570312 8.015625 -5.492188 7.734375 -5.421875 C 7.453125 -5.347656 7.15625 -5.285156 6.84375 -5.234375 C 6.53125 -5.191406 6.25 -5.148438 6 -5.109375 C 5.40625 -5.023438 4.925781 -4.859375 4.5625 -4.609375 C 4.195312 -4.359375 4.015625 -3.992188 4.015625 -3.515625 C 4.015625 -3.054688 4.179688 -2.707031 4.515625 -2.46875 C 4.859375 -2.226562 5.285156 -2.109375 5.796875 -2.109375 Z M 5.796875 -2.109375 "/></g></g></g><g fill="#083982" fill-opacity="1"><g transform="translate(117.240766, 34.473912)"><g/></g></g><g fill="#083982" fill-opacity="1"><g transform="translate(122.431672, 34.473912)"><g><path d="M 15.78125 -10.578125 L 12.296875 -10.578125 C 12.171875 -11.472656 11.789062 -12.175781 11.15625 -12.6875 C 10.519531 -13.207031 9.734375 -13.46875 8.796875 -13.46875 C 7.535156 -13.46875 6.523438 -13.003906 5.765625 -12.078125 C 5.003906 -11.148438 4.625 -9.835938 4.625 -8.140625 C 4.625 -6.398438 5.003906 -5.078125 5.765625 -4.171875 C 6.535156 -3.273438 7.535156 -2.828125 8.765625 -2.828125 C 9.679688 -2.828125 10.457031 -3.066406 11.09375 -3.546875 C 11.726562 -4.023438 12.128906 -4.695312 12.296875 -5.5625 L 15.78125 -5.546875 C 15.65625 -4.554688 15.296875 -3.617188 14.703125 -2.734375 C 14.117188 -1.859375 13.320312 -1.144531 12.3125 -0.59375 C 11.3125 -0.0507812 10.113281 0.21875 8.71875 0.21875 C 7.257812 0.21875 5.957031 -0.109375 4.8125 -0.765625 C 3.675781 -1.421875 2.773438 -2.367188 2.109375 -3.609375 C 1.453125 -4.859375 1.125 -6.367188 1.125 -8.140625 C 1.125 -9.921875 1.457031 -11.429688 2.125 -12.671875 C 2.789062 -13.921875 3.695312 -14.867188 4.84375 -15.515625 C 5.988281 -16.171875 7.28125 -16.5 8.71875 -16.5 C 9.96875 -16.5 11.097656 -16.265625 12.109375 -15.796875 C 13.117188 -15.335938 13.945312 -14.664062 14.59375 -13.78125 C 15.238281 -12.90625 15.632812 -11.835938 15.78125 -10.578125 Z M 15.78125 -10.578125 "/></g></g></g><g fill="#083982" fill-opacity="1"><g transform="translate(139.268342, 34.473912)"><g><path d="M 4.734375 -16.28125 L 4.734375 0 L 1.359375 0 L 1.359375 -16.28125 Z M 4.734375 -16.28125 "/></g></g></g><g fill="#083982" fill-opacity="1"><g transform="translate(145.357526, 34.473912)"><g><path d="M 6.875 0.234375 C 5.632812 0.234375 4.566406 -0.0234375 3.671875 -0.546875 C 2.773438 -1.078125 2.082031 -1.816406 1.59375 -2.765625 C 1.101562 -3.710938 0.859375 -4.8125 0.859375 -6.0625 C 0.859375 -7.320312 1.101562 -8.425781 1.59375 -9.375 C 2.082031 -10.320312 2.773438 -11.054688 3.671875 -11.578125 C 4.566406 -12.109375 5.632812 -12.375 6.875 -12.375 C 8.101562 -12.375 9.164062 -12.109375 10.0625 -11.578125 C 10.96875 -11.054688 11.660156 -10.320312 12.140625 -9.375 C 12.628906 -8.425781 12.875 -7.320312 12.875 -6.0625 C 12.875 -4.8125 12.628906 -3.710938 12.140625 -2.765625 C 11.660156 -1.816406 10.96875 -1.078125 10.0625 -0.546875 C 9.164062 -0.0234375 8.101562 0.234375 6.875 0.234375 Z M 6.890625 -2.390625 C 7.722656 -2.390625 8.351562 -2.738281 8.78125 -3.4375 C 9.21875 -4.132812 9.4375 -5.015625 9.4375 -6.078125 C 9.4375 -7.148438 9.21875 -8.035156 8.78125 -8.734375 C 8.351562 -9.429688 7.722656 -9.78125 6.890625 -9.78125 C 6.035156 -9.78125 5.390625 -9.429688 4.953125 -8.734375 C 4.515625 -8.035156 4.296875 -7.148438 4.296875 -6.078125 C 4.296875 -5.015625 4.515625 -4.132812 4.953125 -3.4375 C 5.390625 -2.738281 6.035156 -2.390625 6.890625 -2.390625 Z M 6.890625 -2.390625 "/></g></g></g><g fill="#083982" fill-opacity="1"><g transform="translate(159.093956, 34.473912)"><g><path d="M 9.1875 -5.203125 L 9.1875 -12.21875 L 12.578125 -12.21875 L 12.578125 0 L 9.3125 0 L 9.3125 -2.21875 L 9.1875 -2.21875 C 8.914062 -1.5 8.457031 -0.921875 7.8125 -0.484375 C 7.175781 -0.0546875 6.398438 0.15625 5.484375 0.15625 C 4.253906 0.15625 3.257812 -0.25 2.5 -1.0625 C 1.738281 -1.882812 1.359375 -3.007812 1.359375 -4.4375 L 1.359375 -12.21875 L 4.734375 -12.21875 L 4.734375 -5.046875 C 4.742188 -4.316406 4.9375 -3.742188 5.3125 -3.328125 C 5.695312 -2.910156 6.210938 -2.703125 6.859375 -2.703125 C 7.460938 -2.703125 8 -2.910156 8.46875 -3.328125 C 8.945312 -3.753906 9.1875 -4.378906 9.1875 -5.203125 Z M 9.1875 -5.203125 "/></g></g></g><g fill="#083982" fill-opacity="1"><g transform="translate(173.013218, 34.473912)"><g><path d="M 5.859375 0.203125 C 4.921875 0.203125 4.078125 -0.0351562 3.328125 -0.515625 C 2.585938 -0.992188 2 -1.703125 1.5625 -2.640625 C 1.125 -3.578125 0.90625 -4.726562 0.90625 -6.09375 C 0.90625 -7.488281 1.128906 -8.648438 1.578125 -9.578125 C 2.035156 -10.515625 2.640625 -11.210938 3.390625 -11.671875 C 4.140625 -12.140625 4.957031 -12.375 5.84375 -12.375 C 6.53125 -12.375 7.101562 -12.257812 7.5625 -12.03125 C 8.019531 -11.800781 8.390625 -11.515625 8.671875 -11.171875 C 8.953125 -10.828125 9.164062 -10.488281 9.3125 -10.15625 L 9.421875 -10.15625 L 9.421875 -16.28125 L 12.796875 -16.28125 L 12.796875 0 L 9.46875 0 L 9.46875 -1.953125 L 9.3125 -1.953125 C 9.164062 -1.617188 8.945312 -1.285156 8.65625 -0.953125 C 8.363281 -0.617188 7.988281 -0.34375 7.53125 -0.125 C 7.070312 0.09375 6.515625 0.203125 5.859375 0.203125 Z M 6.921875 -2.5 C 7.742188 -2.5 8.378906 -2.828125 8.828125 -3.484375 C 9.273438 -4.140625 9.5 -5.015625 9.5 -6.109375 C 9.5 -7.203125 9.273438 -8.066406 8.828125 -8.703125 C 8.378906 -9.347656 7.742188 -9.671875 6.921875 -9.671875 C 6.085938 -9.671875 5.453125 -9.34375 5.015625 -8.6875 C 4.578125 -8.03125 4.359375 -7.171875 4.359375 -6.109375 C 4.359375 -5.046875 4.578125 -4.175781 5.015625 -3.5 C 5.453125 -2.832031 6.085938 -2.5 6.921875 -2.5 Z M 6.921875 -2.5 "/></g></g></g></svg>