<svg xmlns="http://www.w3.org/2000/svg" xmlns:svgjs="http://svgjs.com/svgjs" xmlns:xlink="http://www.w3.org/1999/xlink" width="1440" height="1440" preserveAspectRatio="none" version="1.1" viewBox="0 0 1440 1440"><g fill="none" mask="url(&quot;#SvgjsMask1004&quot;)"><path stroke="rgba(23, 23, 23, 1)" stroke-width="2" d="M74.21 154.64L139.16 192.14L139.16 267.14L74.21 304.64L9.26 267.14L9.26 192.14zM74.21 829.64L139.16 867.14L139.16 942.14L74.21 979.64L9.26 942.14L9.26 867.14zM139.16 942.14L204.12 979.64L204.12 1054.64L139.16 1092.14L74.21 1054.64L74.21 979.64zM74.21 1279.64L139.16 1317.14L139.16 1392.14L74.21 1429.64L9.26 1392.14L9.26 1317.14zM204.12 -70.36L269.07 -32.86L269.07 42.14L204.12 79.64L139.16 42.14L139.16 -32.86zM269.07 42.14L334.02 79.64L334.02 154.64L269.07 192.14L204.12 154.64L204.12 79.64zM204.12 379.64L269.07 417.14L269.07 492.14L204.12 529.64L139.16 492.14L139.16 417.14zM269.07 492.14L334.02 529.64L334.02 604.64L269.07 642.14L204.12 604.64L204.12 529.64zM269.07 717.14L334.02 754.64L334.02 829.64L269.07 867.14L204.12 829.64L204.12 754.64zM204.12 829.64L269.07 867.14L269.07 942.14L204.12 979.64L139.16 942.14L139.16 867.14zM204.12 1279.64L269.07 1317.14L269.07 1392.14L204.12 1429.64L139.16 1392.14L139.16 1317.14zM269.07 1392.14L334.02 1429.64L334.02 1504.64L269.07 1542.14L204.12 1504.64L204.12 1429.64zM398.98 42.14L463.93 79.64L463.93 154.64L398.98 192.14L334.02 154.64L334.02 79.64zM334.02 154.64L398.98 192.14L398.98 267.14L334.02 304.64L269.07 267.14L269.07 192.14zM398.98 492.14L463.93 529.64L463.93 604.64L398.98 642.14L334.02 604.64L334.02 529.64zM398.98 942.14L463.93 979.64L463.93 1054.64L398.98 1092.14L334.02 1054.64L334.02 979.64zM334.02 1054.64L398.98 1092.14L398.98 1167.14L334.02 1204.64L269.07 1167.14L269.07 1092.14zM398.98 1167.14L463.93 1204.64L463.93 1279.64L398.98 1317.14L334.02 1279.64L334.02 1204.64zM463.93 379.64L528.89 417.14L528.89 492.14L463.93 529.64L398.98 492.14L398.98 417.14zM528.89 492.14L593.84 529.64L593.84 604.64L528.89 642.14L463.93 604.64L463.93 529.64zM463.93 829.64L528.89 867.14L528.89 942.14L463.93 979.64L398.98 942.14L398.98 867.14zM528.89 1392.14L593.84 1429.64L593.84 1504.64L528.89 1542.14L463.93 1504.64L463.93 1429.64zM593.84 -70.36L658.79 -32.86L658.79 42.14L593.84 79.64L528.89 42.14L528.89 -32.86zM658.79 42.14L723.75 79.64L723.75 154.64L658.79 192.14L593.84 154.64L593.84 79.64zM593.84 379.64L658.79 417.14L658.79 492.14L593.84 529.64L528.89 492.14L528.89 417.14zM658.79 492.14L723.75 529.64L723.75 604.64L658.79 642.14L593.84 604.64L593.84 529.64zM658.79 717.14L723.75 754.64L723.75 829.64L658.79 867.14L593.84 829.64L593.84 754.64zM593.84 829.64L658.79 867.14L658.79 942.14L593.84 979.64L528.89 942.14L528.89 867.14zM593.84 1054.64L658.79 1092.14L658.79 1167.14L593.84 1204.64L528.89 1167.14L528.89 1092.14zM593.84 1279.64L658.79 1317.14L658.79 1392.14L593.84 1429.64L528.89 1392.14L528.89 1317.14zM723.75 -70.36L788.7 -32.86L788.7 42.14L723.75 79.64L658.79 42.14L658.79 -32.86zM788.7 42.14L853.66 79.64L853.66 154.64L788.7 192.14L723.75 154.64L723.75 79.64zM723.75 154.64L788.7 192.14L788.7 267.14L723.75 304.64L658.79 267.14L658.79 192.14zM788.7 717.14L853.66 754.64L853.66 829.64L788.7 867.14L723.75 829.64L723.75 754.64zM788.7 942.14L853.66 979.64L853.66 1054.64L788.7 1092.14L723.75 1054.64L723.75 979.64zM788.7 1167.14L853.66 1204.64L853.66 1279.64L788.7 1317.14L723.75 1279.64L723.75 1204.64zM853.65 -70.36L918.61 -32.86L918.61 42.14L853.65 79.64L788.7 42.14L788.7 -32.86zM853.65 154.64L918.61 192.14L918.61 267.14L853.65 304.64L788.7 267.14L788.7 192.14zM853.65 379.64L918.61 417.14L918.61 492.14L853.65 529.64L788.7 492.14L788.7 417.14zM983.56 -70.36L1048.52 -32.86L1048.52 42.14L983.56 79.64L918.61 42.14L918.61 -32.86zM1048.52 42.14L1113.47 79.64L1113.47 154.64L1048.52 192.14L983.56 154.64L983.56 79.64zM983.56 379.64L1048.52 417.14L1048.52 492.14L983.56 529.64L918.61 492.14L918.61 417.14zM983.56 829.64L1048.52 867.14L1048.52 942.14L983.56 979.64L918.61 942.14L918.61 867.14zM983.56 1054.64L1048.52 1092.14L1048.52 1167.14L983.56 1204.64L918.61 1167.14L918.61 1092.14zM1048.52 1167.14L1113.47 1204.64L1113.47 1279.64L1048.52 1317.14L983.56 1279.64L983.56 1204.64zM1178.42 42.14L1243.38 79.64L1243.38 154.64L1178.42 192.14L1113.47 154.64L1113.47 79.64zM1113.47 154.64L1178.42 192.14L1178.42 267.14L1113.47 304.64L1048.52 267.14L1048.52 192.14zM1178.42 492.14L1243.38 529.64L1243.38 604.64L1178.42 642.14L1113.47 604.64L1113.47 529.64zM1113.47 604.64L1178.42 642.14L1178.42 717.14L1113.47 754.64L1048.52 717.14L1048.52 642.14zM1178.42 942.14L1243.38 979.64L1243.38 1054.64L1178.42 1092.14L1113.47 1054.64L1113.47 979.64zM1178.42 1392.14L1243.38 1429.64L1243.38 1504.64L1178.42 1542.14L1113.47 1504.64L1113.47 1429.64zM1243.38 604.64L1308.33 642.14L1308.33 717.14L1243.38 754.64L1178.42 717.14L1178.42 642.14zM1243.38 1054.64L1308.33 1092.14L1308.33 1167.14L1243.38 1204.64L1178.42 1167.14L1178.42 1092.14zM1308.33 1392.14L1373.28 1429.64L1373.28 1504.64L1308.33 1542.14L1243.38 1504.64L1243.38 1429.64zM1373.29 -70.36L1438.24 -32.86L1438.24 42.14L1373.29 79.64L1308.33 42.14L1308.33 -32.86zM1373.29 379.64L1438.24 417.14L1438.24 492.14L1373.29 529.64L1308.33 492.14L1308.33 417.14zM1373.29 1054.64L1438.24 1092.14L1438.24 1167.14L1373.29 1204.64L1308.33 1167.14L1308.33 1092.14zM1438.24 1167.14L1503.19 1204.64L1503.19 1279.64L1438.24 1317.14L1373.29 1279.64L1373.29 1204.64zM1373.29 1279.64L1438.24 1317.14L1438.24 1392.14L1373.29 1429.64L1308.33 1392.14L1308.33 1317.14zM1503.19 -70.36L1568.15 -32.86L1568.15 42.14L1503.19 79.64L1438.24 42.14L1438.24 -32.86zM1568.15 267.14L1633.1 304.64L1633.1 379.64L1568.15 417.14L1503.19 379.64L1503.19 304.64zM1503.19 379.64L1568.15 417.14L1568.15 492.14L1503.19 529.64L1438.24 492.14L1438.24 417.14zM1568.15 717.14L1633.1 754.64L1633.1 829.64L1568.15 867.14L1503.19 829.64L1503.19 754.64zM1503.19 829.64L1568.15 867.14L1568.15 942.14L1503.19 979.64L1438.24 942.14L1438.24 867.14zM1568.15 942.14L1633.1 979.64L1633.1 1054.64L1568.15 1092.14L1503.19 1054.64L1503.19 979.64zM1503.19 1054.64L1568.15 1092.14L1568.15 1167.14L1503.19 1204.64L1438.24 1167.14L1438.24 1092.14zM1568.15 1167.14L1633.1 1204.64L1633.1 1279.64L1568.15 1317.14L1503.19 1279.64L1503.19 1204.64z"/><path fill="rgba(23, 23, 23, 1)" d="M66.71 154.64 a7.5 7.5 0 1 0 15 0 a7.5 7.5 0 1 0 -15 0zM131.66 192.14 a7.5 7.5 0 1 0 15 0 a7.5 7.5 0 1 0 -15 0zM131.66 267.14 a7.5 7.5 0 1 0 15 0 a7.5 7.5 0 1 0 -15 0zM66.71 304.64 a7.5 7.5 0 1 0 15 0 a7.5 7.5 0 1 0 -15 0zM1.76 267.14 a7.5 7.5 0 1 0 15 0 a7.5 7.5 0 1 0 -15 0zM1.76 192.14 a7.5 7.5 0 1 0 15 0 a7.5 7.5 0 1 0 -15 0zM66.71 829.64 a7.5 7.5 0 1 0 15 0 a7.5 7.5 0 1 0 -15 0zM131.66 867.14 a7.5 7.5 0 1 0 15 0 a7.5 7.5 0 1 0 -15 0zM131.66 942.14 a7.5 7.5 0 1 0 15 0 a7.5 7.5 0 1 0 -15 0zM66.71 979.64 a7.5 7.5 0 1 0 15 0 a7.5 7.5 0 1 0 -15 0zM1.76 942.14 a7.5 7.5 0 1 0 15 0 a7.5 7.5 0 1 0 -15 0zM1.76 867.14 a7.5 7.5 0 1 0 15 0 a7.5 7.5 0 1 0 -15 0zM196.62 979.64 a7.5 7.5 0 1 0 15 0 a7.5 7.5 0 1 0 -15 0zM196.62 1054.64 a7.5 7.5 0 1 0 15 0 a7.5 7.5 0 1 0 -15 0zM131.66 1092.14 a7.5 7.5 0 1 0 15 0 a7.5 7.5 0 1 0 -15 0zM66.71 1054.64 a7.5 7.5 0 1 0 15 0 a7.5 7.5 0 1 0 -15 0zM66.71 1279.64 a7.5 7.5 0 1 0 15 0 a7.5 7.5 0 1 0 -15 0zM131.66 1317.14 a7.5 7.5 0 1 0 15 0 a7.5 7.5 0 1 0 -15 0zM131.66 1392.14 a7.5 7.5 0 1 0 15 0 a7.5 7.5 0 1 0 -15 0zM66.71 1429.64 a7.5 7.5 0 1 0 15 0 a7.5 7.5 0 1 0 -15 0zM1.76 1392.14 a7.5 7.5 0 1 0 15 0 a7.5 7.5 0 1 0 -15 0zM1.76 1317.14 a7.5 7.5 0 1 0 15 0 a7.5 7.5 0 1 0 -15 0zM196.62 -70.36 a7.5 7.5 0 1 0 15 0 a7.5 7.5 0 1 0 -15 0zM261.57 -32.86 a7.5 7.5 0 1 0 15 0 a7.5 7.5 0 1 0 -15 0zM261.57 42.14 a7.5 7.5 0 1 0 15 0 a7.5 7.5 0 1 0 -15 0zM196.62 79.64 a7.5 7.5 0 1 0 15 0 a7.5 7.5 0 1 0 -15 0zM131.66 42.14 a7.5 7.5 0 1 0 15 0 a7.5 7.5 0 1 0 -15 0zM131.66 -32.86 a7.5 7.5 0 1 0 15 0 a7.5 7.5 0 1 0 -15 0zM326.52 79.64 a7.5 7.5 0 1 0 15 0 a7.5 7.5 0 1 0 -15 0zM326.52 154.64 a7.5 7.5 0 1 0 15 0 a7.5 7.5 0 1 0 -15 0zM261.57 192.14 a7.5 7.5 0 1 0 15 0 a7.5 7.5 0 1 0 -15 0zM196.62 154.64 a7.5 7.5 0 1 0 15 0 a7.5 7.5 0 1 0 -15 0zM196.62 379.64 a7.5 7.5 0 1 0 15 0 a7.5 7.5 0 1 0 -15 0zM261.57 417.14 a7.5 7.5 0 1 0 15 0 a7.5 7.5 0 1 0 -15 0zM261.57 492.14 a7.5 7.5 0 1 0 15 0 a7.5 7.5 0 1 0 -15 0zM196.62 529.64 a7.5 7.5 0 1 0 15 0 a7.5 7.5 0 1 0 -15 0zM131.66 492.14 a7.5 7.5 0 1 0 15 0 a7.5 7.5 0 1 0 -15 0zM131.66 417.14 a7.5 7.5 0 1 0 15 0 a7.5 7.5 0 1 0 -15 0zM326.52 529.64 a7.5 7.5 0 1 0 15 0 a7.5 7.5 0 1 0 -15 0zM326.52 604.64 a7.5 7.5 0 1 0 15 0 a7.5 7.5 0 1 0 -15 0zM261.57 642.14 a7.5 7.5 0 1 0 15 0 a7.5 7.5 0 1 0 -15 0zM196.62 604.64 a7.5 7.5 0 1 0 15 0 a7.5 7.5 0 1 0 -15 0zM261.57 717.14 a7.5 7.5 0 1 0 15 0 a7.5 7.5 0 1 0 -15 0zM326.52 754.64 a7.5 7.5 0 1 0 15 0 a7.5 7.5 0 1 0 -15 0zM326.52 829.64 a7.5 7.5 0 1 0 15 0 a7.5 7.5 0 1 0 -15 0zM261.57 867.14 a7.5 7.5 0 1 0 15 0 a7.5 7.5 0 1 0 -15 0zM196.62 829.64 a7.5 7.5 0 1 0 15 0 a7.5 7.5 0 1 0 -15 0zM196.62 754.64 a7.5 7.5 0 1 0 15 0 a7.5 7.5 0 1 0 -15 0zM261.57 942.14 a7.5 7.5 0 1 0 15 0 a7.5 7.5 0 1 0 -15 0zM196.62 1279.64 a7.5 7.5 0 1 0 15 0 a7.5 7.5 0 1 0 -15 0zM261.57 1317.14 a7.5 7.5 0 1 0 15 0 a7.5 7.5 0 1 0 -15 0zM261.57 1392.14 a7.5 7.5 0 1 0 15 0 a7.5 7.5 0 1 0 -15 0zM196.62 1429.64 a7.5 7.5 0 1 0 15 0 a7.5 7.5 0 1 0 -15 0zM326.52 1429.64 a7.5 7.5 0 1 0 15 0 a7.5 7.5 0 1 0 -15 0zM326.52 1504.64 a7.5 7.5 0 1 0 15 0 a7.5 7.5 0 1 0 -15 0zM261.57 1542.14 a7.5 7.5 0 1 0 15 0 a7.5 7.5 0 1 0 -15 0zM196.62 1504.64 a7.5 7.5 0 1 0 15 0 a7.5 7.5 0 1 0 -15 0zM391.48 42.14 a7.5 7.5 0 1 0 15 0 a7.5 7.5 0 1 0 -15 0zM456.43 79.64 a7.5 7.5 0 1 0 15 0 a7.5 7.5 0 1 0 -15 0zM456.43 154.64 a7.5 7.5 0 1 0 15 0 a7.5 7.5 0 1 0 -15 0zM391.48 192.14 a7.5 7.5 0 1 0 15 0 a7.5 7.5 0 1 0 -15 0zM391.48 267.14 a7.5 7.5 0 1 0 15 0 a7.5 7.5 0 1 0 -15 0zM326.52 304.64 a7.5 7.5 0 1 0 15 0 a7.5 7.5 0 1 0 -15 0zM261.57 267.14 a7.5 7.5 0 1 0 15 0 a7.5 7.5 0 1 0 -15 0zM391.48 492.14 a7.5 7.5 0 1 0 15 0 a7.5 7.5 0 1 0 -15 0zM456.43 529.64 a7.5 7.5 0 1 0 15 0 a7.5 7.5 0 1 0 -15 0zM456.43 604.64 a7.5 7.5 0 1 0 15 0 a7.5 7.5 0 1 0 -15 0zM391.48 642.14 a7.5 7.5 0 1 0 15 0 a7.5 7.5 0 1 0 -15 0zM391.48 942.14 a7.5 7.5 0 1 0 15 0 a7.5 7.5 0 1 0 -15 0zM456.43 979.64 a7.5 7.5 0 1 0 15 0 a7.5 7.5 0 1 0 -15 0zM456.43 1054.64 a7.5 7.5 0 1 0 15 0 a7.5 7.5 0 1 0 -15 0zM391.48 1092.14 a7.5 7.5 0 1 0 15 0 a7.5 7.5 0 1 0 -15 0zM326.52 1054.64 a7.5 7.5 0 1 0 15 0 a7.5 7.5 0 1 0 -15 0zM326.52 979.64 a7.5 7.5 0 1 0 15 0 a7.5 7.5 0 1 0 -15 0zM391.48 1167.14 a7.5 7.5 0 1 0 15 0 a7.5 7.5 0 1 0 -15 0zM326.52 1204.64 a7.5 7.5 0 1 0 15 0 a7.5 7.5 0 1 0 -15 0zM261.57 1167.14 a7.5 7.5 0 1 0 15 0 a7.5 7.5 0 1 0 -15 0zM261.57 1092.14 a7.5 7.5 0 1 0 15 0 a7.5 7.5 0 1 0 -15 0zM456.43 1204.64 a7.5 7.5 0 1 0 15 0 a7.5 7.5 0 1 0 -15 0zM456.43 1279.64 a7.5 7.5 0 1 0 15 0 a7.5 7.5 0 1 0 -15 0zM391.48 1317.14 a7.5 7.5 0 1 0 15 0 a7.5 7.5 0 1 0 -15 0zM326.52 1279.64 a7.5 7.5 0 1 0 15 0 a7.5 7.5 0 1 0 -15 0zM456.43 379.64 a7.5 7.5 0 1 0 15 0 a7.5 7.5 0 1 0 -15 0zM521.39 417.14 a7.5 7.5 0 1 0 15 0 a7.5 7.5 0 1 0 -15 0zM521.39 492.14 a7.5 7.5 0 1 0 15 0 a7.5 7.5 0 1 0 -15 0zM391.48 417.14 a7.5 7.5 0 1 0 15 0 a7.5 7.5 0 1 0 -15 0zM586.34 529.64 a7.5 7.5 0 1 0 15 0 a7.5 7.5 0 1 0 -15 0zM586.34 604.64 a7.5 7.5 0 1 0 15 0 a7.5 7.5 0 1 0 -15 0zM521.39 642.14 a7.5 7.5 0 1 0 15 0 a7.5 7.5 0 1 0 -15 0zM456.43 829.64 a7.5 7.5 0 1 0 15 0 a7.5 7.5 0 1 0 -15 0zM521.39 867.14 a7.5 7.5 0 1 0 15 0 a7.5 7.5 0 1 0 -15 0zM521.39 942.14 a7.5 7.5 0 1 0 15 0 a7.5 7.5 0 1 0 -15 0zM391.48 867.14 a7.5 7.5 0 1 0 15 0 a7.5 7.5 0 1 0 -15 0zM521.39 1392.14 a7.5 7.5 0 1 0 15 0 a7.5 7.5 0 1 0 -15 0zM586.34 1429.64 a7.5 7.5 0 1 0 15 0 a7.5 7.5 0 1 0 -15 0zM586.34 1504.64 a7.5 7.5 0 1 0 15 0 a7.5 7.5 0 1 0 -15 0zM521.39 1542.14 a7.5 7.5 0 1 0 15 0 a7.5 7.5 0 1 0 -15 0zM456.43 1504.64 a7.5 7.5 0 1 0 15 0 a7.5 7.5 0 1 0 -15 0zM456.43 1429.64 a7.5 7.5 0 1 0 15 0 a7.5 7.5 0 1 0 -15 0zM586.34 -70.36 a7.5 7.5 0 1 0 15 0 a7.5 7.5 0 1 0 -15 0zM651.29 -32.86 a7.5 7.5 0 1 0 15 0 a7.5 7.5 0 1 0 -15 0zM651.29 42.14 a7.5 7.5 0 1 0 15 0 a7.5 7.5 0 1 0 -15 0zM586.34 79.64 a7.5 7.5 0 1 0 15 0 a7.5 7.5 0 1 0 -15 0zM521.39 42.14 a7.5 7.5 0 1 0 15 0 a7.5 7.5 0 1 0 -15 0zM521.39 -32.86 a7.5 7.5 0 1 0 15 0 a7.5 7.5 0 1 0 -15 0zM716.25 79.64 a7.5 7.5 0 1 0 15 0 a7.5 7.5 0 1 0 -15 0zM716.25 154.64 a7.5 7.5 0 1 0 15 0 a7.5 7.5 0 1 0 -15 0zM651.29 192.14 a7.5 7.5 0 1 0 15 0 a7.5 7.5 0 1 0 -15 0zM586.34 154.64 a7.5 7.5 0 1 0 15 0 a7.5 7.5 0 1 0 -15 0zM586.34 379.64 a7.5 7.5 0 1 0 15 0 a7.5 7.5 0 1 0 -15 0zM651.29 417.14 a7.5 7.5 0 1 0 15 0 a7.5 7.5 0 1 0 -15 0zM651.29 492.14 a7.5 7.5 0 1 0 15 0 a7.5 7.5 0 1 0 -15 0zM716.25 529.64 a7.5 7.5 0 1 0 15 0 a7.5 7.5 0 1 0 -15 0zM716.25 604.64 a7.5 7.5 0 1 0 15 0 a7.5 7.5 0 1 0 -15 0zM651.29 642.14 a7.5 7.5 0 1 0 15 0 a7.5 7.5 0 1 0 -15 0zM651.29 717.14 a7.5 7.5 0 1 0 15 0 a7.5 7.5 0 1 0 -15 0zM716.25 754.64 a7.5 7.5 0 1 0 15 0 a7.5 7.5 0 1 0 -15 0zM716.25 829.64 a7.5 7.5 0 1 0 15 0 a7.5 7.5 0 1 0 -15 0zM651.29 867.14 a7.5 7.5 0 1 0 15 0 a7.5 7.5 0 1 0 -15 0zM586.34 829.64 a7.5 7.5 0 1 0 15 0 a7.5 7.5 0 1 0 -15 0zM586.34 754.64 a7.5 7.5 0 1 0 15 0 a7.5 7.5 0 1 0 -15 0zM651.29 942.14 a7.5 7.5 0 1 0 15 0 a7.5 7.5 0 1 0 -15 0zM586.34 979.64 a7.5 7.5 0 1 0 15 0 a7.5 7.5 0 1 0 -15 0zM586.34 1054.64 a7.5 7.5 0 1 0 15 0 a7.5 7.5 0 1 0 -15 0zM651.29 1092.14 a7.5 7.5 0 1 0 15 0 a7.5 7.5 0 1 0 -15 0zM651.29 1167.14 a7.5 7.5 0 1 0 15 0 a7.5 7.5 0 1 0 -15 0zM586.34 1204.64 a7.5 7.5 0 1 0 15 0 a7.5 7.5 0 1 0 -15 0zM521.39 1167.14 a7.5 7.5 0 1 0 15 0 a7.5 7.5 0 1 0 -15 0zM521.39 1092.14 a7.5 7.5 0 1 0 15 0 a7.5 7.5 0 1 0 -15 0zM586.34 1279.64 a7.5 7.5 0 1 0 15 0 a7.5 7.5 0 1 0 -15 0zM651.29 1317.14 a7.5 7.5 0 1 0 15 0 a7.5 7.5 0 1 0 -15 0zM651.29 1392.14 a7.5 7.5 0 1 0 15 0 a7.5 7.5 0 1 0 -15 0zM521.39 1317.14 a7.5 7.5 0 1 0 15 0 a7.5 7.5 0 1 0 -15 0zM716.25 -70.36 a7.5 7.5 0 1 0 15 0 a7.5 7.5 0 1 0 -15 0zM781.2 -32.86 a7.5 7.5 0 1 0 15 0 a7.5 7.5 0 1 0 -15 0zM781.2 42.14 a7.5 7.5 0 1 0 15 0 a7.5 7.5 0 1 0 -15 0zM846.16 79.64 a7.5 7.5 0 1 0 15 0 a7.5 7.5 0 1 0 -15 0zM846.16 154.64 a7.5 7.5 0 1 0 15 0 a7.5 7.5 0 1 0 -15 0zM781.2 192.14 a7.5 7.5 0 1 0 15 0 a7.5 7.5 0 1 0 -15 0zM781.2 267.14 a7.5 7.5 0 1 0 15 0 a7.5 7.5 0 1 0 -15 0zM716.25 304.64 a7.5 7.5 0 1 0 15 0 a7.5 7.5 0 1 0 -15 0zM651.29 267.14 a7.5 7.5 0 1 0 15 0 a7.5 7.5 0 1 0 -15 0zM781.2 717.14 a7.5 7.5 0 1 0 15 0 a7.5 7.5 0 1 0 -15 0zM846.16 754.64 a7.5 7.5 0 1 0 15 0 a7.5 7.5 0 1 0 -15 0zM846.16 829.64 a7.5 7.5 0 1 0 15 0 a7.5 7.5 0 1 0 -15 0zM781.2 867.14 a7.5 7.5 0 1 0 15 0 a7.5 7.5 0 1 0 -15 0zM781.2 942.14 a7.5 7.5 0 1 0 15 0 a7.5 7.5 0 1 0 -15 0zM846.16 979.64 a7.5 7.5 0 1 0 15 0 a7.5 7.5 0 1 0 -15 0zM846.16 1054.64 a7.5 7.5 0 1 0 15 0 a7.5 7.5 0 1 0 -15 0zM781.2 1092.14 a7.5 7.5 0 1 0 15 0 a7.5 7.5 0 1 0 -15 0zM716.25 1054.64 a7.5 7.5 0 1 0 15 0 a7.5 7.5 0 1 0 -15 0zM716.25 979.64 a7.5 7.5 0 1 0 15 0 a7.5 7.5 0 1 0 -15 0zM781.2 1167.14 a7.5 7.5 0 1 0 15 0 a7.5 7.5 0 1 0 -15 0zM846.16 1204.64 a7.5 7.5 0 1 0 15 0 a7.5 7.5 0 1 0 -15 0zM846.16 1279.64 a7.5 7.5 0 1 0 15 0 a7.5 7.5 0 1 0 -15 0zM781.2 1317.14 a7.5 7.5 0 1 0 15 0 a7.5 7.5 0 1 0 -15 0zM716.25 1279.64 a7.5 7.5 0 1 0 15 0 a7.5 7.5 0 1 0 -15 0zM716.25 1204.64 a7.5 7.5 0 1 0 15 0 a7.5 7.5 0 1 0 -15 0zM846.15 -70.36 a7.5 7.5 0 1 0 15 0 a7.5 7.5 0 1 0 -15 0zM911.11 -32.86 a7.5 7.5 0 1 0 15 0 a7.5 7.5 0 1 0 -15 0zM911.11 42.14 a7.5 7.5 0 1 0 15 0 a7.5 7.5 0 1 0 -15 0zM846.15 79.64 a7.5 7.5 0 1 0 15 0 a7.5 7.5 0 1 0 -15 0zM846.15 154.64 a7.5 7.5 0 1 0 15 0 a7.5 7.5 0 1 0 -15 0zM911.11 192.14 a7.5 7.5 0 1 0 15 0 a7.5 7.5 0 1 0 -15 0zM911.11 267.14 a7.5 7.5 0 1 0 15 0 a7.5 7.5 0 1 0 -15 0zM846.15 304.64 a7.5 7.5 0 1 0 15 0 a7.5 7.5 0 1 0 -15 0zM846.15 379.64 a7.5 7.5 0 1 0 15 0 a7.5 7.5 0 1 0 -15 0zM911.11 417.14 a7.5 7.5 0 1 0 15 0 a7.5 7.5 0 1 0 -15 0zM911.11 492.14 a7.5 7.5 0 1 0 15 0 a7.5 7.5 0 1 0 -15 0zM846.15 529.64 a7.5 7.5 0 1 0 15 0 a7.5 7.5 0 1 0 -15 0zM781.2 492.14 a7.5 7.5 0 1 0 15 0 a7.5 7.5 0 1 0 -15 0zM781.2 417.14 a7.5 7.5 0 1 0 15 0 a7.5 7.5 0 1 0 -15 0zM976.06 -70.36 a7.5 7.5 0 1 0 15 0 a7.5 7.5 0 1 0 -15 0zM1041.02 -32.86 a7.5 7.5 0 1 0 15 0 a7.5 7.5 0 1 0 -15 0zM1041.02 42.14 a7.5 7.5 0 1 0 15 0 a7.5 7.5 0 1 0 -15 0zM976.06 79.64 a7.5 7.5 0 1 0 15 0 a7.5 7.5 0 1 0 -15 0zM1105.97 79.64 a7.5 7.5 0 1 0 15 0 a7.5 7.5 0 1 0 -15 0zM1105.97 154.64 a7.5 7.5 0 1 0 15 0 a7.5 7.5 0 1 0 -15 0zM1041.02 192.14 a7.5 7.5 0 1 0 15 0 a7.5 7.5 0 1 0 -15 0zM976.06 154.64 a7.5 7.5 0 1 0 15 0 a7.5 7.5 0 1 0 -15 0zM976.06 379.64 a7.5 7.5 0 1 0 15 0 a7.5 7.5 0 1 0 -15 0zM1041.02 417.14 a7.5 7.5 0 1 0 15 0 a7.5 7.5 0 1 0 -15 0zM1041.02 492.14 a7.5 7.5 0 1 0 15 0 a7.5 7.5 0 1 0 -15 0zM976.06 529.64 a7.5 7.5 0 1 0 15 0 a7.5 7.5 0 1 0 -15 0zM976.06 829.64 a7.5 7.5 0 1 0 15 0 a7.5 7.5 0 1 0 -15 0zM1041.02 867.14 a7.5 7.5 0 1 0 15 0 a7.5 7.5 0 1 0 -15 0zM1041.02 942.14 a7.5 7.5 0 1 0 15 0 a7.5 7.5 0 1 0 -15 0zM976.06 979.64 a7.5 7.5 0 1 0 15 0 a7.5 7.5 0 1 0 -15 0zM911.11 942.14 a7.5 7.5 0 1 0 15 0 a7.5 7.5 0 1 0 -15 0zM911.11 867.14 a7.5 7.5 0 1 0 15 0 a7.5 7.5 0 1 0 -15 0zM976.06 1054.64 a7.5 7.5 0 1 0 15 0 a7.5 7.5 0 1 0 -15 0zM1041.02 1092.14 a7.5 7.5 0 1 0 15 0 a7.5 7.5 0 1 0 -15 0zM1041.02 1167.14 a7.5 7.5 0 1 0 15 0 a7.5 7.5 0 1 0 -15 0zM976.06 1204.64 a7.5 7.5 0 1 0 15 0 a7.5 7.5 0 1 0 -15 0zM911.11 1167.14 a7.5 7.5 0 1 0 15 0 a7.5 7.5 0 1 0 -15 0zM911.11 1092.14 a7.5 7.5 0 1 0 15 0 a7.5 7.5 0 1 0 -15 0zM1105.97 1204.64 a7.5 7.5 0 1 0 15 0 a7.5 7.5 0 1 0 -15 0zM1105.97 1279.64 a7.5 7.5 0 1 0 15 0 a7.5 7.5 0 1 0 -15 0zM1041.02 1317.14 a7.5 7.5 0 1 0 15 0 a7.5 7.5 0 1 0 -15 0zM976.06 1279.64 a7.5 7.5 0 1 0 15 0 a7.5 7.5 0 1 0 -15 0zM1170.92 42.14 a7.5 7.5 0 1 0 15 0 a7.5 7.5 0 1 0 -15 0zM1235.88 79.64 a7.5 7.5 0 1 0 15 0 a7.5 7.5 0 1 0 -15 0zM1235.88 154.64 a7.5 7.5 0 1 0 15 0 a7.5 7.5 0 1 0 -15 0zM1170.92 192.14 a7.5 7.5 0 1 0 15 0 a7.5 7.5 0 1 0 -15 0zM1170.92 267.14 a7.5 7.5 0 1 0 15 0 a7.5 7.5 0 1 0 -15 0zM1105.97 304.64 a7.5 7.5 0 1 0 15 0 a7.5 7.5 0 1 0 -15 0zM1041.02 267.14 a7.5 7.5 0 1 0 15 0 a7.5 7.5 0 1 0 -15 0zM1170.92 492.14 a7.5 7.5 0 1 0 15 0 a7.5 7.5 0 1 0 -15 0zM1235.88 529.64 a7.5 7.5 0 1 0 15 0 a7.5 7.5 0 1 0 -15 0zM1235.88 604.64 a7.5 7.5 0 1 0 15 0 a7.5 7.5 0 1 0 -15 0zM1170.92 642.14 a7.5 7.5 0 1 0 15 0 a7.5 7.5 0 1 0 -15 0zM1105.97 604.64 a7.5 7.5 0 1 0 15 0 a7.5 7.5 0 1 0 -15 0zM1105.97 529.64 a7.5 7.5 0 1 0 15 0 a7.5 7.5 0 1 0 -15 0zM1170.92 717.14 a7.5 7.5 0 1 0 15 0 a7.5 7.5 0 1 0 -15 0zM1105.97 754.64 a7.5 7.5 0 1 0 15 0 a7.5 7.5 0 1 0 -15 0zM1041.02 717.14 a7.5 7.5 0 1 0 15 0 a7.5 7.5 0 1 0 -15 0zM1041.02 642.14 a7.5 7.5 0 1 0 15 0 a7.5 7.5 0 1 0 -15 0zM1170.92 942.14 a7.5 7.5 0 1 0 15 0 a7.5 7.5 0 1 0 -15 0zM1235.88 979.64 a7.5 7.5 0 1 0 15 0 a7.5 7.5 0 1 0 -15 0zM1235.88 1054.64 a7.5 7.5 0 1 0 15 0 a7.5 7.5 0 1 0 -15 0zM1170.92 1092.14 a7.5 7.5 0 1 0 15 0 a7.5 7.5 0 1 0 -15 0zM1105.97 1054.64 a7.5 7.5 0 1 0 15 0 a7.5 7.5 0 1 0 -15 0zM1105.97 979.64 a7.5 7.5 0 1 0 15 0 a7.5 7.5 0 1 0 -15 0zM1170.92 1392.14 a7.5 7.5 0 1 0 15 0 a7.5 7.5 0 1 0 -15 0zM1235.88 1429.64 a7.5 7.5 0 1 0 15 0 a7.5 7.5 0 1 0 -15 0zM1235.88 1504.64 a7.5 7.5 0 1 0 15 0 a7.5 7.5 0 1 0 -15 0zM1170.92 1542.14 a7.5 7.5 0 1 0 15 0 a7.5 7.5 0 1 0 -15 0zM1105.97 1504.64 a7.5 7.5 0 1 0 15 0 a7.5 7.5 0 1 0 -15 0zM1105.97 1429.64 a7.5 7.5 0 1 0 15 0 a7.5 7.5 0 1 0 -15 0zM1300.83 642.14 a7.5 7.5 0 1 0 15 0 a7.5 7.5 0 1 0 -15 0zM1300.83 717.14 a7.5 7.5 0 1 0 15 0 a7.5 7.5 0 1 0 -15 0zM1235.88 754.64 a7.5 7.5 0 1 0 15 0 a7.5 7.5 0 1 0 -15 0zM1300.83 1092.14 a7.5 7.5 0 1 0 15 0 a7.5 7.5 0 1 0 -15 0zM1300.83 1167.14 a7.5 7.5 0 1 0 15 0 a7.5 7.5 0 1 0 -15 0zM1235.88 1204.64 a7.5 7.5 0 1 0 15 0 a7.5 7.5 0 1 0 -15 0zM1170.92 1167.14 a7.5 7.5 0 1 0 15 0 a7.5 7.5 0 1 0 -15 0zM1300.83 1392.14 a7.5 7.5 0 1 0 15 0 a7.5 7.5 0 1 0 -15 0zM1365.78 1429.64 a7.5 7.5 0 1 0 15 0 a7.5 7.5 0 1 0 -15 0zM1365.78 1504.64 a7.5 7.5 0 1 0 15 0 a7.5 7.5 0 1 0 -15 0zM1300.83 1542.14 a7.5 7.5 0 1 0 15 0 a7.5 7.5 0 1 0 -15 0zM1365.79 -70.36 a7.5 7.5 0 1 0 15 0 a7.5 7.5 0 1 0 -15 0zM1430.74 -32.86 a7.5 7.5 0 1 0 15 0 a7.5 7.5 0 1 0 -15 0zM1430.74 42.14 a7.5 7.5 0 1 0 15 0 a7.5 7.5 0 1 0 -15 0zM1365.79 79.64 a7.5 7.5 0 1 0 15 0 a7.5 7.5 0 1 0 -15 0zM1300.83 42.14 a7.5 7.5 0 1 0 15 0 a7.5 7.5 0 1 0 -15 0zM1300.83 -32.86 a7.5 7.5 0 1 0 15 0 a7.5 7.5 0 1 0 -15 0zM1365.79 379.64 a7.5 7.5 0 1 0 15 0 a7.5 7.5 0 1 0 -15 0zM1430.74 417.14 a7.5 7.5 0 1 0 15 0 a7.5 7.5 0 1 0 -15 0zM1430.74 492.14 a7.5 7.5 0 1 0 15 0 a7.5 7.5 0 1 0 -15 0zM1365.79 529.64 a7.5 7.5 0 1 0 15 0 a7.5 7.5 0 1 0 -15 0zM1300.83 492.14 a7.5 7.5 0 1 0 15 0 a7.5 7.5 0 1 0 -15 0zM1300.83 417.14 a7.5 7.5 0 1 0 15 0 a7.5 7.5 0 1 0 -15 0zM1365.79 1054.64 a7.5 7.5 0 1 0 15 0 a7.5 7.5 0 1 0 -15 0zM1430.74 1092.14 a7.5 7.5 0 1 0 15 0 a7.5 7.5 0 1 0 -15 0zM1430.74 1167.14 a7.5 7.5 0 1 0 15 0 a7.5 7.5 0 1 0 -15 0zM1365.79 1204.64 a7.5 7.5 0 1 0 15 0 a7.5 7.5 0 1 0 -15 0zM1495.69 1204.64 a7.5 7.5 0 1 0 15 0 a7.5 7.5 0 1 0 -15 0zM1495.69 1279.64 a7.5 7.5 0 1 0 15 0 a7.5 7.5 0 1 0 -15 0zM1430.74 1317.14 a7.5 7.5 0 1 0 15 0 a7.5 7.5 0 1 0 -15 0zM1365.79 1279.64 a7.5 7.5 0 1 0 15 0 a7.5 7.5 0 1 0 -15 0zM1430.74 1392.14 a7.5 7.5 0 1 0 15 0 a7.5 7.5 0 1 0 -15 0zM1365.79 1429.64 a7.5 7.5 0 1 0 15 0 a7.5 7.5 0 1 0 -15 0zM1300.83 1317.14 a7.5 7.5 0 1 0 15 0 a7.5 7.5 0 1 0 -15 0zM1495.69 -70.36 a7.5 7.5 0 1 0 15 0 a7.5 7.5 0 1 0 -15 0zM1560.65 -32.86 a7.5 7.5 0 1 0 15 0 a7.5 7.5 0 1 0 -15 0zM1560.65 42.14 a7.5 7.5 0 1 0 15 0 a7.5 7.5 0 1 0 -15 0zM1495.69 79.64 a7.5 7.5 0 1 0 15 0 a7.5 7.5 0 1 0 -15 0zM1560.65 267.14 a7.5 7.5 0 1 0 15 0 a7.5 7.5 0 1 0 -15 0zM1625.6 304.64 a7.5 7.5 0 1 0 15 0 a7.5 7.5 0 1 0 -15 0zM1625.6 379.64 a7.5 7.5 0 1 0 15 0 a7.5 7.5 0 1 0 -15 0zM1560.65 417.14 a7.5 7.5 0 1 0 15 0 a7.5 7.5 0 1 0 -15 0zM1495.69 379.64 a7.5 7.5 0 1 0 15 0 a7.5 7.5 0 1 0 -15 0zM1495.69 304.64 a7.5 7.5 0 1 0 15 0 a7.5 7.5 0 1 0 -15 0zM1560.65 492.14 a7.5 7.5 0 1 0 15 0 a7.5 7.5 0 1 0 -15 0zM1495.69 529.64 a7.5 7.5 0 1 0 15 0 a7.5 7.5 0 1 0 -15 0zM1560.65 717.14 a7.5 7.5 0 1 0 15 0 a7.5 7.5 0 1 0 -15 0zM1625.6 754.64 a7.5 7.5 0 1 0 15 0 a7.5 7.5 0 1 0 -15 0zM1625.6 829.64 a7.5 7.5 0 1 0 15 0 a7.5 7.5 0 1 0 -15 0zM1560.65 867.14 a7.5 7.5 0 1 0 15 0 a7.5 7.5 0 1 0 -15 0zM1495.69 829.64 a7.5 7.5 0 1 0 15 0 a7.5 7.5 0 1 0 -15 0zM1495.69 754.64 a7.5 7.5 0 1 0 15 0 a7.5 7.5 0 1 0 -15 0zM1560.65 942.14 a7.5 7.5 0 1 0 15 0 a7.5 7.5 0 1 0 -15 0zM1495.69 979.64 a7.5 7.5 0 1 0 15 0 a7.5 7.5 0 1 0 -15 0zM1430.74 942.14 a7.5 7.5 0 1 0 15 0 a7.5 7.5 0 1 0 -15 0zM1430.74 867.14 a7.5 7.5 0 1 0 15 0 a7.5 7.5 0 1 0 -15 0zM1625.6 979.64 a7.5 7.5 0 1 0 15 0 a7.5 7.5 0 1 0 -15 0zM1625.6 1054.64 a7.5 7.5 0 1 0 15 0 a7.5 7.5 0 1 0 -15 0zM1560.65 1092.14 a7.5 7.5 0 1 0 15 0 a7.5 7.5 0 1 0 -15 0zM1495.69 1054.64 a7.5 7.5 0 1 0 15 0 a7.5 7.5 0 1 0 -15 0zM1560.65 1167.14 a7.5 7.5 0 1 0 15 0 a7.5 7.5 0 1 0 -15 0zM1625.6 1204.64 a7.5 7.5 0 1 0 15 0 a7.5 7.5 0 1 0 -15 0zM1625.6 1279.64 a7.5 7.5 0 1 0 15 0 a7.5 7.5 0 1 0 -15 0zM1560.65 1317.14 a7.5 7.5 0 1 0 15 0 a7.5 7.5 0 1 0 -15 0z"/><path stroke="rgba(45, 45, 45, 1)" stroke-width="2" d="M112.02 566.08L155.32 591.08L155.32 641.08L112.02 666.08L68.71 641.08L68.71 591.08zM155.32 1091.08L198.62 1116.08L198.62 1166.08L155.32 1191.08L112.02 1166.08L112.02 1116.08zM112.02 1166.08L155.32 1191.08L155.32 1241.08L112.02 1266.08L68.71 1241.08L68.71 1191.08zM241.92 491.08L285.23 516.08L285.23 566.08L241.92 591.08L198.62 566.08L198.62 516.08zM198.62 1016.08L241.92 1041.08L241.92 1091.08L198.62 1116.08L155.32 1091.08L155.32 1041.08zM328.53 191.08L371.83 216.08L371.83 266.08L328.53 291.08L285.23 266.08L285.23 216.08zM285.23 1016.08L328.53 1041.08L328.53 1091.08L285.23 1116.08L241.92 1091.08L241.92 1041.08zM285.23 1316.08L328.53 1341.08L328.53 1391.08L285.23 1416.08L241.92 1391.08L241.92 1341.08zM371.83 -33.92L415.13 -8.92L415.13 41.08L371.83 66.08L328.53 41.08L328.53 -8.92zM371.83 116.08L415.13 141.08L415.13 191.08L371.83 216.08L328.53 191.08L328.53 141.08zM415.13 341.08L458.44 366.08L458.44 416.08L415.13 441.08L371.83 416.08L371.83 366.08zM371.83 566.08L415.13 591.08L415.13 641.08L371.83 666.08L328.53 641.08L328.53 591.08zM371.83 1016.08L415.13 1041.08L415.13 1091.08L371.83 1116.08L328.53 1091.08L328.53 1041.08zM501.74 641.08L545.04 666.08L545.04 716.08L501.74 741.08L458.44 716.08L458.44 666.08zM458.44 1166.08L501.74 1191.08L501.74 1241.08L458.44 1266.08L415.13 1241.08L415.13 1191.08zM458.44 1316.08L501.74 1341.08L501.74 1391.08L458.44 1416.08L415.13 1391.08L415.13 1341.08zM545.04 416.08L588.34 441.08L588.34 491.08L545.04 516.08L501.74 491.08L501.74 441.08zM545.04 1016.08L588.34 1041.08L588.34 1091.08L545.04 1116.08L501.74 1091.08L501.74 1041.08zM674.95 191.08L718.25 216.08L718.25 266.08L674.95 291.08L631.64 266.08L631.64 216.08zM718.25 116.08L761.55 141.08L761.55 191.08L718.25 216.08L674.95 191.08L674.95 141.08zM761.55 191.08L804.86 216.08L804.86 266.08L761.55 291.08L718.25 266.08L718.25 216.08zM718.25 266.08L761.55 291.08L761.55 341.08L718.25 366.08L674.95 341.08L674.95 291.08zM761.55 341.08L804.86 366.08L804.86 416.08L761.55 441.08L718.25 416.08L718.25 366.08zM718.25 416.08L761.55 441.08L761.55 491.08L718.25 516.08L674.95 491.08L674.95 441.08zM804.86 -33.92L848.16 -8.92L848.16 41.08L804.86 66.08L761.55 41.08L761.55 -8.92zM848.16 341.08L891.46 366.08L891.46 416.08L848.16 441.08L804.86 416.08L804.86 366.08zM848.16 491.08L891.46 516.08L891.46 566.08L848.16 591.08L804.86 566.08L804.86 516.08zM848.16 791.08L891.46 816.08L891.46 866.08L848.16 891.08L804.86 866.08L804.86 816.08zM978.07 -33.92L1021.37 -8.92L1021.37 41.08L978.07 66.08L934.76 41.08L934.76 -8.92zM1021.37 341.08L1064.67 366.08L1064.67 416.08L1021.37 441.08L978.07 416.08L978.07 366.08zM978.07 566.08L1021.37 591.08L1021.37 641.08L978.07 666.08L934.76 641.08L934.76 591.08zM1021.37 641.08L1064.67 666.08L1064.67 716.08L1021.37 741.08L978.07 716.08L978.07 666.08zM978.07 716.08L1021.37 741.08L1021.37 791.08L978.07 816.08L934.76 791.08L934.76 741.08zM978.07 1316.08L1021.37 1341.08L1021.37 1391.08L978.07 1416.08L934.76 1391.08L934.76 1341.08zM1064.67 116.08L1107.97 141.08L1107.97 191.08L1064.67 216.08L1021.37 191.08L1021.37 141.08zM1107.97 341.08L1151.28 366.08L1151.28 416.08L1107.97 441.08L1064.67 416.08L1064.67 366.08zM1064.67 416.08L1107.97 441.08L1107.97 491.08L1064.67 516.08L1021.37 491.08L1021.37 441.08zM1151.28 416.08L1194.58 441.08L1194.58 491.08L1151.28 516.08L1107.97 491.08L1107.97 441.08zM1194.58 1091.08L1237.88 1116.08L1237.88 1166.08L1194.58 1191.08L1151.28 1166.08L1151.28 1116.08zM1237.88 116.08L1281.18 141.08L1281.18 191.08L1237.88 216.08L1194.58 191.08L1194.58 141.08zM1281.18 491.08L1324.49 516.08L1324.49 566.08L1281.18 591.08L1237.88 566.08L1237.88 516.08zM1237.88 566.08L1281.18 591.08L1281.18 641.08L1237.88 666.08L1194.58 641.08L1194.58 591.08zM1237.88 1166.08L1281.18 1191.08L1281.18 1241.08L1237.88 1266.08L1194.58 1241.08L1194.58 1191.08zM1281.18 1391.08L1324.49 1416.08L1324.49 1466.08L1281.18 1491.08L1237.88 1466.08L1237.88 1416.08zM1367.79 191.08L1411.09 216.08L1411.09 266.08L1367.79 291.08L1324.49 266.08L1324.49 216.08zM1367.79 941.08L1411.09 966.08L1411.09 1016.08L1367.79 1041.08L1324.49 1016.08L1324.49 966.08zM1454.39 41.08L1497.7 66.08L1497.7 116.08L1454.39 141.08L1411.09 116.08L1411.09 66.08zM1411.09 1016.08L1454.39 1041.08L1454.39 1091.08L1411.09 1116.08L1367.79 1091.08L1367.79 1041.08z"/></g><defs><mask id="SvgjsMask1004"><rect width="1440" height="1440" fill="#fff"/></mask></defs></svg>