<svg height="666.66669" viewBox="0 0 666.66669 666.66669" width="666.66669" xmlns="http://www.w3.org/2000/svg"><g stroke-width="1.33333"><path d="m332.66668 418.66668h-84.66667v-85.33334-85.33333h84.66667 84.66667v-85.33334-85.333334h85.33333 85.33334v85.333334 85.33334h-85.33334-85.33333v85.33333 85.33334z" fill="#fef400"/><path d="m248.00001 589.33335h-170.666674v-170.66667-170.66667h85.333334 85.33334v-85.33334-85.333334h84.66667 84.66667v85.333334 85.33334h85.33333 85.33334v85.33333 85.33334h-84.66667-84.66667v85.33334 85.33333zm84.66667-170.66667h84.66667v-85.33334-85.33333h-84.66667-84.66667v85.33333 85.33334z" fill="#fe6565"/><path d="m333.33334 666.66669h-333.33334v-333.33335-333.33334h333.33334 333.33335v333.33334 333.33335zm-85.33333-77.33334h170.66667v-85.33333-85.33334h84.66667 84.66667v-170.66667-170.666674h-170.00001-170v85.333334 85.33334h-85.33334-85.333334v170.66667 170.66667z" fill="#545454"/></g></svg>