<svg fill="none" height="500" viewBox="0 0 500 500" width="500" xmlns="http://www.w3.org/2000/svg"><path d="m0 0h32v32h-32z" fill="#000" transform="matrix(-1 0 0 1 70 266)"/><path d="m0 0h32v32h-32z" fill="#000" transform="matrix(-1 0 0 1 102 202)"/><path d="m-.5.5h31v31h-31z" stroke="#000" transform="matrix(-1 0 0 1 132 202)"/><g fill="#000"><path d="m0 0h32v32h-32z" transform="matrix(-1 0 0 1 101 266)"/><path d="m0 0h32v32h-32z" transform="matrix(-1 0 0 1 70 234)"/><path d="m0 0h32v32h-32z" transform="matrix(-1 0 0 1 133 234)"/><path d="m155.624 272v-31.104c0-2.603.64-4.928 1.92-6.976 1.28-2.091 3.029-3.733 5.248-4.928 2.261-1.195 4.821-1.792 7.68-1.792h17.728v10.816h-15.616c-.896 0-1.643.299-2.24.896s-.896 1.344-.896 2.24v4.928h16.704v10.56h-16.704v15.36zm47.508 12.992v-13.12c-2.219-.683-4.16-1.685-5.824-3.008-1.621-1.365-2.88-2.965-3.776-4.8-.853-1.877-1.28-3.925-1.28-6.144v-19.072h12.224v18.176c0 .811.192 1.579.576 2.304s.939 1.323 1.664 1.792 1.579.704 2.56.704c1.024 0 1.877-.235 2.56-.704.725-.469 1.259-1.067 1.6-1.792.384-.725.576-1.493.576-2.304v-18.176h12.288v19.072c0 2.219-.427 4.288-1.28 6.208-.853 1.877-2.091 3.499-3.712 4.864-1.621 1.323-3.584 2.304-5.888 2.944v13.056zm28.555-12.992v-22.848c0-3.157.917-5.653 2.752-7.488 1.834-1.835 4.394-2.752 7.68-2.752h10.624v9.28h-6.336c-.726 0-1.323.235-1.792.704-.427.427-.64 1.003-.64 1.728v21.376zm38.578.832c-2.773 0-5.269-.704-7.488-2.112s-3.968-3.349-5.248-5.824c-1.28-2.517-1.92-5.44-1.92-8.768 0-3.541.789-6.656 2.368-9.344 1.579-2.731 3.755-4.864 6.528-6.4 2.816-1.536 6.08-2.304 9.792-2.304 3.627 0 6.784.747 9.472 2.24 2.688 1.451 4.779 3.499 6.272 6.144 1.536 2.603 2.304 5.632 2.304 9.088v16.448h-11.648v-4.928h-.384c-.555 1.152-1.301 2.176-2.24 3.072-.896.853-1.984 1.515-3.264 1.984s-2.795.704-4.544.704zm3.776-10.752c1.152 0 2.155-.277 3.008-.832.896-.555 1.579-1.323 2.048-2.304.512-1.024.768-2.176.768-3.456 0-1.237-.256-2.325-.768-3.264-.469-.939-1.152-1.685-2.048-2.24-.853-.555-1.856-.832-3.008-.832-1.109 0-2.112.277-3.008.832s-1.6 1.301-2.112 2.24c-.469.939-.704 2.027-.704 3.264 0 1.28.235 2.432.704 3.456.512.981 1.216 1.749 2.112 2.304s1.899.832 3.008.832zm55.686 9.92c-3.03 0-5.675-.64-7.936-1.92-2.262-1.28-4.011-2.965-5.248-5.056-1.238-2.133-1.856-4.48-1.856-7.04v-30.784h13.823v30.912c0 .811.278 1.536.833 2.176.597.597 1.322.896 2.176.896h11.84v10.816zm31.351.832c-2.774 0-5.27-.704-7.488-2.112-2.219-1.408-3.968-3.349-5.248-5.824-1.28-2.517-1.92-5.44-1.92-8.768 0-3.541.789-6.656 2.368-9.344 1.578-2.731 3.754-4.864 6.528-6.4 2.816-1.536 6.08-2.304 9.792-2.304 3.626 0 6.784.747 9.472 2.24 2.688 1.451 4.778 3.499 6.272 6.144 1.536 2.603 2.304 5.632 2.304 9.088v16.448h-11.648v-4.928h-.384c-.555 1.152-1.302 2.176-2.24 3.072-.896.853-1.984 1.515-3.264 1.984s-2.795.704-4.544.704zm3.776-10.752c1.152 0 2.154-.277 3.008-.832.896-.555 1.578-1.323 2.048-2.304.512-1.024.768-2.176.768-3.456 0-1.237-.256-2.325-.768-3.264-.47-.939-1.152-1.685-2.048-2.24-.854-.555-1.856-.832-3.008-.832-1.11 0-2.112.277-3.008.832s-1.6 1.301-2.112 2.24c-.47.939-.704 2.027-.704 3.264 0 1.28.234 2.432.704 3.456.512.981 1.216 1.749 2.112 2.304s1.898.832 3.008.832zm42.076 10.752c-3.627 0-6.827-.747-9.6-2.24-2.774-1.493-4.928-3.584-6.464-6.272s-2.304-5.845-2.304-9.472v-29.568h12.288v16.192h.384c.64-.768 1.386-1.408 2.24-1.92.853-.512 1.792-.875 2.816-1.088 1.024-.256 2.112-.384 3.264-.384 2.944 0 5.61.704 8 2.112 2.389 1.408 4.266 3.371 5.632 5.888 1.408 2.517 2.112 5.483 2.112 8.896 0 2.645-.448 5.056-1.344 7.232-.854 2.176-2.091 4.075-3.712 5.696-1.622 1.579-3.563 2.795-5.824 3.648-2.219.853-4.715 1.28-7.488 1.28zm0-10.752c1.152 0 2.154-.277 3.008-.832.896-.555 1.578-1.323 2.048-2.304.512-1.024.768-2.176.768-3.456 0-1.237-.256-2.325-.768-3.264-.47-.939-1.152-1.685-2.048-2.24-.854-.555-1.856-.832-3.008-.832-1.11 0-2.112.277-3.008.832s-1.6 1.301-2.112 2.24c-.47.939-.704 2.027-.704 3.264 0 1.28.234 2.432.704 3.456.512.981 1.216 1.749 2.112 2.304s1.898.832 3.008.832zm23.197 9.92v-8.704h15.488c.341 0 .619-.064.832-.192.213-.171.384-.363.512-.576.128-.256.192-.512.192-.768s-.064-.491-.192-.704c-.128-.256-.299-.448-.512-.576s-.491-.192-.832-.192h-4.992c-2.176 0-4.16-.363-5.952-1.088-1.792-.768-3.221-1.941-4.288-3.52-1.024-1.621-1.536-3.691-1.536-6.208 0-1.963.469-3.733 1.408-5.312.981-1.621 2.304-2.901 3.968-3.84 1.664-.981 3.499-1.472 5.504-1.472h16.832v8.704h-13.952c-.427 0-.789.149-1.088.448-.256.299-.384.64-.384 1.024s.128.725.384 1.024c.299.299.661.448 1.088.448h4.608c2.475 0 4.608.384 6.4 1.152 1.835.725 3.243 1.877 4.224 3.456s1.472 3.627 1.472 6.144c0 1.963-.512 3.755-1.536 5.376-.981 1.621-2.304 2.923-3.968 3.904s-3.541 1.472-5.632 1.472z"/></g></svg>