<svg xmlns="http://www.w3.org/2000/svg" xmlns:xlink="http://www.w3.org/1999/xlink" width="500" height="250" preserveAspectRatio="xMidYMid meet" version="1.0" viewBox="0 0 375 187.5" zoomAndPan="magnify"><g fill="#FFF" fill-opacity="1"><g><g><path d="M 2.75 0 L 2.75 -44.421875 L 30.953125 -44.421875 L 29.609375 -35.296875 L 15.890625 -35.296875 L 15.890625 -25.59375 L 27.953125 -25.59375 L 27.953125 -16.46875 L 15.890625 -16.46875 L 15.890625 0 Z M 2.75 0" transform="translate(28.449529, 114.818808)"/></g></g></g><g fill="#FFF" fill-opacity="1"><g><g><path d="M 24.578125 -0.0625 C 23.128906 4.65625 20.660156 8.226562 17.171875 10.65625 C 13.679688 13.082031 9.085938 14.378906 3.390625 14.546875 L 2.046875 5.9375 C 5.316406 5.59375 7.75 4.992188 9.34375 4.140625 C 10.945312 3.296875 12.191406 1.914062 13.078125 0 L 8.75 0 L -0.953125 -34.078125 L 12.453125 -34.078125 L 16.71875 -7.71875 L 22.015625 -34.078125 L 35.046875 -34.078125 Z M 24.578125 -0.0625" transform="translate(59.405072, 114.818808)"/></g></g></g><g fill="#FFF" fill-opacity="1"><g><g><path d="M 23.359375 -35.171875 C 24.460938 -35.171875 25.613281 -34.976562 26.8125 -34.59375 L 24.828125 -22.40625 C 23.679688 -22.75 22.640625 -22.921875 21.703125 -22.921875 C 19.828125 -22.921875 18.429688 -22.300781 17.515625 -21.0625 C 16.609375 -19.832031 15.875 -17.984375 15.3125 -15.515625 L 15.3125 0 L 2.6875 0 L 2.6875 -34.078125 L 13.71875 -34.078125 L 14.75 -27.703125 C 15.46875 -29.953125 16.613281 -31.757812 18.1875 -33.125 C 19.757812 -34.488281 21.484375 -35.171875 23.359375 -35.171875 Z M 23.359375 -35.171875" transform="translate(93.488082, 114.818808)"/></g></g></g><g fill="#FFF" fill-opacity="1"><g><g><path d="M 32.171875 -11.046875 C 32.171875 -9.847656 32.316406 -8.960938 32.609375 -8.390625 C 32.910156 -7.816406 33.445312 -7.378906 34.21875 -7.078125 L 31.65625 1.015625 C 29.363281 0.847656 27.492188 0.414062 26.046875 -0.28125 C 24.597656 -0.988281 23.40625 -2.128906 22.46875 -3.703125 C 20.257812 -0.378906 16.832031 1.28125 12.1875 1.28125 C 8.832031 1.28125 6.117188 0.269531 4.046875 -1.75 C 1.984375 -3.769531 0.953125 -6.378906 0.953125 -9.578125 C 0.953125 -13.359375 2.351562 -16.25 5.15625 -18.25 C 7.96875 -20.25 12.054688 -21.25 17.421875 -21.25 L 19.84375 -21.25 L 19.84375 -22.078125 C 19.84375 -23.785156 19.503906 -24.9375 18.828125 -25.53125 C 18.148438 -26.125 16.851562 -26.421875 14.9375 -26.421875 C 13.914062 -26.421875 12.601562 -26.257812 11 -25.9375 C 9.40625 -25.625 7.78125 -25.191406 6.125 -24.640625 L 3.390625 -32.6875 C 5.472656 -33.53125 7.734375 -34.1875 10.171875 -34.65625 C 12.617188 -35.125 14.84375 -35.359375 16.84375 -35.359375 C 22.207031 -35.359375 26.101562 -34.328125 28.53125 -32.265625 C 30.957031 -30.203125 32.171875 -27.039062 32.171875 -22.78125 Z M 16.078125 -7.59375 C 16.847656 -7.59375 17.5625 -7.785156 18.21875 -8.171875 C 18.882812 -8.554688 19.425781 -9.046875 19.84375 -9.640625 L 19.84375 -14.6875 L 18.515625 -14.6875 C 16.722656 -14.6875 15.398438 -14.363281 14.546875 -13.71875 C 13.703125 -13.082031 13.28125 -12.101562 13.28125 -10.78125 C 13.28125 -9.800781 13.535156 -9.023438 14.046875 -8.453125 C 14.554688 -7.878906 15.234375 -7.59375 16.078125 -7.59375 Z M 16.078125 -7.59375" transform="translate(119.656694, 114.818808)"/></g></g></g><g fill="#FFF" fill-opacity="1"><g><g><path d="M 19.078125 -45.703125 C 25.847656 -45.703125 31.316406 -43.679688 35.484375 -39.640625 L 29.6875 -32.8125 C 26.707031 -35.1875 23.535156 -36.375 20.171875 -36.375 C 18.597656 -36.375 17.40625 -36.097656 16.59375 -35.546875 C 15.78125 -34.992188 15.375 -34.207031 15.375 -33.1875 C 15.375 -32.425781 15.597656 -31.800781 16.046875 -31.3125 C 16.492188 -30.820312 17.238281 -30.363281 18.28125 -29.9375 C 19.320312 -29.507812 21.015625 -28.910156 23.359375 -28.140625 C 28.035156 -26.660156 31.40625 -24.789062 33.46875 -22.53125 C 35.539062 -20.28125 36.578125 -17.195312 36.578125 -13.28125 C 36.578125 -10.425781 35.820312 -7.898438 34.3125 -5.703125 C 32.800781 -3.515625 30.640625 -1.800781 27.828125 -0.5625 C 25.015625 0.664062 21.695312 1.28125 17.875 1.28125 C 13.957031 1.28125 10.507812 0.664062 7.53125 -0.5625 C 4.550781 -1.800781 2.039062 -3.421875 0 -5.421875 L 6.453125 -12.515625 C 9.804688 -9.617188 13.441406 -8.171875 17.359375 -8.171875 C 19.191406 -8.171875 20.578125 -8.539062 21.515625 -9.28125 C 22.453125 -10.03125 22.921875 -11 22.921875 -12.1875 C 22.921875 -13.082031 22.71875 -13.828125 22.3125 -14.421875 C 21.90625 -15.015625 21.191406 -15.566406 20.171875 -16.078125 C 19.148438 -16.585938 17.660156 -17.144531 15.703125 -17.75 C 10.554688 -19.363281 6.957031 -21.304688 4.90625 -23.578125 C 2.863281 -25.859375 1.84375 -28.703125 1.84375 -32.109375 C 1.84375 -34.867188 2.585938 -37.269531 4.078125 -39.3125 C 5.566406 -41.351562 7.617188 -42.925781 10.234375 -44.03125 C 12.859375 -45.144531 15.804688 -45.703125 19.078125 -45.703125 Z M 19.078125 -45.703125" transform="translate(168.866437, 114.818808)"/></g></g></g><g fill="#FFF" fill-opacity="1"><g><g><path d="M 18.640625 -35.359375 C 24.085938 -35.359375 28.375 -33.757812 31.5 -30.5625 C 34.625 -27.375 36.1875 -22.847656 36.1875 -16.984375 C 36.1875 -13.316406 35.472656 -10.097656 34.046875 -7.328125 C 32.628906 -4.566406 30.597656 -2.441406 27.953125 -0.953125 C 25.316406 0.535156 22.210938 1.28125 18.640625 1.28125 C 13.191406 1.28125 8.898438 -0.3125 5.765625 -3.5 C 2.640625 -6.695312 1.078125 -11.234375 1.078125 -17.109375 C 1.078125 -20.765625 1.789062 -23.972656 3.21875 -26.734375 C 4.644531 -29.503906 6.675781 -31.632812 9.3125 -33.125 C 11.957031 -34.613281 15.066406 -35.359375 18.640625 -35.359375 Z M 18.640625 -26.296875 C 17.023438 -26.296875 15.851562 -25.570312 15.125 -24.125 C 14.40625 -22.675781 14.046875 -20.335938 14.046875 -17.109375 C 14.046875 -13.742188 14.40625 -11.347656 15.125 -9.921875 C 15.851562 -8.492188 17.023438 -7.78125 18.640625 -7.78125 C 20.253906 -7.78125 21.421875 -8.503906 22.140625 -9.953125 C 22.867188 -11.398438 23.234375 -13.742188 23.234375 -16.984375 C 23.234375 -20.335938 22.867188 -22.726562 22.140625 -24.15625 C 21.421875 -25.582031 20.253906 -26.296875 18.640625 -26.296875 Z M 18.640625 -26.296875" transform="translate(206.396052, 114.818808)"/></g></g></g><g fill="#FFF" fill-opacity="1"><g><g><path d="M 18.828125 -35.359375 C 23.679688 -35.359375 27.8125 -33.847656 31.21875 -30.828125 L 25.984375 -23.484375 C 24.023438 -25.054688 22.023438 -25.84375 19.984375 -25.84375 C 18.023438 -25.84375 16.578125 -25.160156 15.640625 -23.796875 C 14.703125 -22.441406 14.234375 -20.101562 14.234375 -16.78125 C 14.234375 -13.59375 14.710938 -11.410156 15.671875 -10.234375 C 16.628906 -9.066406 18.019531 -8.484375 19.84375 -8.484375 C 20.820312 -8.484375 21.738281 -8.644531 22.59375 -8.96875 C 23.445312 -9.289062 24.507812 -9.851562 25.78125 -10.65625 L 31.21875 -2.9375 C 27.769531 -0.125 23.75 1.28125 19.15625 1.28125 C 15.445312 1.28125 12.226562 0.523438 9.5 -0.984375 C 6.78125 -2.492188 4.695312 -4.617188 3.25 -7.359375 C 1.800781 -10.109375 1.078125 -13.25 1.078125 -16.78125 C 1.078125 -20.351562 1.8125 -23.546875 3.28125 -26.359375 C 4.75 -29.171875 6.820312 -31.375 9.5 -32.96875 C 12.1875 -34.5625 15.296875 -35.359375 18.828125 -35.359375 Z M 18.828125 -35.359375" transform="translate(243.670377, 114.818808)"/></g></g></g><g fill="#FFF" fill-opacity="1"><g><g><path d="M 15.3125 -34.078125 L 15.3125 0 L 2.6875 0 L 2.6875 -34.078125 Z M 9 -52.90625 C 11.039062 -52.90625 12.726562 -52.253906 14.0625 -50.953125 C 15.40625 -49.660156 16.078125 -48.054688 16.078125 -46.140625 C 16.078125 -44.234375 15.40625 -42.628906 14.0625 -41.328125 C 12.726562 -40.023438 11.039062 -39.375 9 -39.375 C 6.957031 -39.375 5.265625 -40.023438 3.921875 -41.328125 C 2.585938 -42.628906 1.921875 -44.234375 1.921875 -46.140625 C 1.921875 -48.054688 2.585938 -49.660156 3.921875 -50.953125 C 5.265625 -52.253906 6.957031 -52.90625 9 -52.90625 Z M 9 -52.90625" transform="translate(274.242969, 114.818808)"/></g></g></g><g fill="#FFF" fill-opacity="1"><g><g><path d="M 32.171875 -11.046875 C 32.171875 -9.847656 32.316406 -8.960938 32.609375 -8.390625 C 32.910156 -7.816406 33.445312 -7.378906 34.21875 -7.078125 L 31.65625 1.015625 C 29.363281 0.847656 27.492188 0.414062 26.046875 -0.28125 C 24.597656 -0.988281 23.40625 -2.128906 22.46875 -3.703125 C 20.257812 -0.378906 16.832031 1.28125 12.1875 1.28125 C 8.832031 1.28125 6.117188 0.269531 4.046875 -1.75 C 1.984375 -3.769531 0.953125 -6.378906 0.953125 -9.578125 C 0.953125 -13.359375 2.351562 -16.25 5.15625 -18.25 C 7.96875 -20.25 12.054688 -21.25 17.421875 -21.25 L 19.84375 -21.25 L 19.84375 -22.078125 C 19.84375 -23.785156 19.503906 -24.9375 18.828125 -25.53125 C 18.148438 -26.125 16.851562 -26.421875 14.9375 -26.421875 C 13.914062 -26.421875 12.601562 -26.257812 11 -25.9375 C 9.40625 -25.625 7.78125 -25.191406 6.125 -24.640625 L 3.390625 -32.6875 C 5.472656 -33.53125 7.734375 -34.1875 10.171875 -34.65625 C 12.617188 -35.125 14.84375 -35.359375 16.84375 -35.359375 C 22.207031 -35.359375 26.101562 -34.328125 28.53125 -32.265625 C 30.957031 -30.203125 32.171875 -27.039062 32.171875 -22.78125 Z M 16.078125 -7.59375 C 16.847656 -7.59375 17.5625 -7.785156 18.21875 -8.171875 C 18.882812 -8.554688 19.425781 -9.046875 19.84375 -9.640625 L 19.84375 -14.6875 L 18.515625 -14.6875 C 16.722656 -14.6875 15.398438 -14.363281 14.546875 -13.71875 C 13.703125 -13.082031 13.28125 -12.101562 13.28125 -10.78125 C 13.28125 -9.800781 13.535156 -9.023438 14.046875 -8.453125 C 14.554688 -7.878906 15.234375 -7.59375 16.078125 -7.59375 Z M 16.078125 -7.59375" transform="translate(292.241869, 114.818808)"/></g></g></g><g fill="#FFF" fill-opacity="1"><g><g><path d="M 13.078125 1.28125 C 9.640625 1.28125 6.992188 0.3125 5.140625 -1.625 C 3.285156 -3.5625 2.359375 -6.296875 2.359375 -9.828125 L 2.359375 -47.484375 L 15 -48.765625 L 15 -10.34375 C 15 -9.1875 15.507812 -8.609375 16.53125 -8.609375 C 17 -8.609375 17.445312 -8.695312 17.875 -8.875 L 20.109375 0.125 C 18.109375 0.894531 15.765625 1.28125 13.078125 1.28125 Z M 13.078125 1.28125" transform="translate(327.409919, 114.818808)"/></g></g></g></svg>