<svg height="250" preserveAspectRatio="xMidYMid meet" viewBox="0 0 375 187.5" width="500" xmlns="http://www.w3.org/2000/svg" zoomAndPan="magnify"><g fill="#fff"><path d="m2.75 0v-44.421875h28.203125l-1.34375 9.125h-13.71875v9.703125h12.0625v9.125h-12.0625v16.46875zm0 0" transform="translate(28.449529 114.818808)"/><path d="m24.578125-.0625c-1.449219 4.71875-3.917969 8.289062-7.40625 10.71875-3.492187 2.425781-8.085937 3.722656-13.78125 3.890625l-1.34375-8.609375c3.269531-.34375 5.703125-.945312 7.296875-1.796875 1.601562-.84375 2.847656-2.226563 3.734375-4.140625h-4.328125l-9.703125-34.078125h13.40625l4.265625 26.359375 5.296875-26.359375h13.03125zm0 0" transform="translate(59.405072 114.818808)"/><path d="m23.359375-35.171875c1.101563 0 2.253906.195313 3.453125.578125l-1.984375 12.1875c-1.148437-.34375-2.1875-.515625-3.125-.515625-1.875 0-3.273437.621094-4.1875 1.859375-.90625 1.230469-1.640625 3.078125-2.203125 5.546875v15.515625h-12.625v-34.078125h11.03125l1.03125 6.375c.71875-2.25 1.863281-4.054687 3.4375-5.421875 1.570312-1.363281 3.296875-2.046875 5.171875-2.046875zm0 0" transform="translate(93.488082 114.818808)"/><path d="m32.171875-11.046875c0 1.199219.144531 2.085937.4375 2.65625.300781.574219.835937 1.011719 1.609375 1.3125l-2.5625 8.09375c-2.292969-.167969-4.164062-.601563-5.609375-1.296875-1.449219-.707031-2.640625-1.847656-3.578125-3.421875-2.210938 3.324219-5.636719 4.984375-10.28125 4.984375-3.355469 0-6.070312-1.011719-8.140625-3.03125-2.0625-2.019531-3.09375-4.628906-3.09375-7.828125 0-3.78125 1.398437-6.671875 4.203125-8.671875 2.8125-2 6.898438-3 12.265625-3h2.421875v-.828125c0-1.707031-.339844-2.859375-1.015625-3.453125-.679687-.59375-1.976563-.890625-3.890625-.890625-1.023438 0-2.335938.164063-3.9375.484375-1.59375.3125-3.21875.746094-4.875 1.296875l-2.734375-8.046875c2.082031-.84375 4.34375-1.5 6.78125-1.96875 2.445313-.46875 4.671875-.703125 6.671875-.703125 5.363281 0 9.257812 1.03125 11.6875 3.09375 2.425781 2.0625 3.640625 5.226563 3.640625 9.484375zm-16.09375 3.453125c.769531 0 1.484375-.191406 2.140625-.578125.664062-.382813 1.207031-.875 1.625-1.46875v-5.046875h-1.328125c-1.792969 0-3.117187.324219-3.96875.96875-.84375.636719-1.265625 1.617188-1.265625 2.9375 0 .980469.253906 1.757812.765625 2.328125.507813.574219 1.1875.859375 2.03125.859375zm0 0" transform="translate(119.656694 114.818808)"/><path d="m19.078125-45.703125c6.769531 0 12.238281 2.023437 16.40625 6.0625l-5.796875 6.828125c-2.980469-2.375-6.152344-3.5625-9.515625-3.5625-1.574219 0-2.765625.277344-3.578125.828125-.8125.554687-1.21875 1.339844-1.21875 2.359375 0 .761719.222656 1.386719.671875 1.875.445313.492188 1.191406.949219 2.234375 1.375 1.039062.429688 2.734375 1.027344 5.078125 1.796875 4.675781 1.480469 8.046875 3.351563 10.109375 5.609375 2.070312 2.25 3.109375 5.335938 3.109375 9.25 0 2.855469-.757813 5.382812-2.265625 7.578125-1.511719 2.1875-3.671875 3.902344-6.484375 5.140625-2.8125 1.226562-6.132813 1.84375-9.953125 1.84375-3.917969 0-7.367188-.617188-10.34375-1.84375-2.980469-1.238281-5.492188-2.859375-7.53125-4.859375l6.453125-7.09375c3.351563 2.898437 6.988281 4.34375 10.90625 4.34375 1.832031 0 3.21875-.367187 4.15625-1.109375.9375-.75 1.40625-1.71875 1.40625-2.90625 0-.894531-.203125-1.640625-.609375-2.234375s-1.121094-1.144531-2.140625-1.65625c-1.023437-.507813-2.511719-1.066406-4.46875-1.671875-5.148437-1.613281-8.746094-3.554688-10.796875-5.828125-2.042969-2.28125-3.0625-5.125-3.0625-8.53125 0-2.757813.742188-5.160156 2.234375-7.203125 1.488281-2.039062 3.539063-3.613281 6.15625-4.71875 2.625-1.113281 5.570313-1.671875 8.84375-1.671875zm0 0" transform="translate(168.866437 114.818808)"/><path d="m18.640625-35.359375c5.445313 0 9.734375 1.601563 12.859375 4.796875 3.125 3.1875 4.6875 7.714844 4.6875 13.578125 0 3.667969-.714844 6.886719-2.140625 9.65625-1.417969 2.761719-3.449219 4.886719-6.09375 6.375-2.636719 1.488281-5.742187 2.234375-9.3125 2.234375-5.449219 0-9.742187-1.59375-12.875-4.78125-3.125-3.195312-4.6875-7.734375-4.6875-13.609375 0-3.65625.710937-6.863281 2.140625-9.625 1.425781-2.769531 3.457031-4.898437 6.09375-6.390625 2.644531-1.488281 5.753906-2.234375 9.328125-2.234375zm0 9.0625c-1.617187 0-2.789063.726563-3.515625 2.171875-.71875 1.449219-1.078125 3.789062-1.078125 7.015625 0 3.367187.359375 5.761719 1.078125 7.1875.726562 1.429687 1.898438 2.140625 3.515625 2.140625 1.613281 0 2.78125-.722656 3.5-2.171875.726563-1.445313 1.09375-3.789063 1.09375-7.03125 0-3.351563-.367187-5.742187-1.09375-7.171875-.71875-1.425781-1.886719-2.140625-3.5-2.140625zm0 0" transform="translate(206.396052 114.818808)"/><path d="m18.828125-35.359375c4.851563 0 8.984375 1.511719 12.390625 4.53125l-5.234375 7.34375c-1.960937-1.570313-3.960937-2.359375-6-2.359375-1.960937 0-3.40625.683594-4.34375 2.046875-.9375 1.355469-1.40625 3.695313-1.40625 7.015625 0 3.1875.476563 5.371094 1.4375 6.546875.957031 1.167969 2.347656 1.75 4.171875 1.75.976562 0 1.894531-.160156 2.75-.484375.851562-.320312 1.914062-.882812 3.1875-1.6875l5.4375 7.71875c-3.449219 2.8125-7.46875 4.21875-12.0625 4.21875-3.710938 0-6.929688-.757812-9.65625-2.265625-2.71875-1.507813-4.804688-3.632813-6.25-6.375-1.449219-2.75-2.171875-5.890625-2.171875-9.421875 0-3.570312.734375-6.765625 2.203125-9.578125s3.539062-5.015625 6.21875-6.609375c2.6875-1.59375 5.796875-2.390625 9.328125-2.390625zm0 0" transform="translate(243.670377 114.818808)"/><path d="m15.3125-34.078125v34.078125h-12.625v-34.078125zm-6.3125-18.828125c2.039062 0 3.726562.652344 5.0625 1.953125 1.34375 1.292969 2.015625 2.898437 2.015625 4.8125 0 1.90625-.671875 3.511719-2.015625 4.8125-1.335938 1.304687-3.023438 1.953125-5.0625 1.953125-2.042969 0-3.734375-.648438-5.078125-1.953125-1.335937-1.300781-2-2.90625-2-4.8125 0-1.914063.664063-3.519531 2-4.8125 1.34375-1.300781 3.035156-1.953125 5.078125-1.953125zm0 0" transform="translate(274.242969 114.818808)"/><path d="m32.171875-11.046875c0 1.199219.144531 2.085937.4375 2.65625.300781.574219.835937 1.011719 1.609375 1.3125l-2.5625 8.09375c-2.292969-.167969-4.164062-.601563-5.609375-1.296875-1.449219-.707031-2.640625-1.847656-3.578125-3.421875-2.210938 3.324219-5.636719 4.984375-10.28125 4.984375-3.355469 0-6.070312-1.011719-8.140625-3.03125-2.0625-2.019531-3.09375-4.628906-3.09375-7.828125 0-3.78125 1.398437-6.671875 4.203125-8.671875 2.8125-2 6.898438-3 12.265625-3h2.421875v-.828125c0-1.707031-.339844-2.859375-1.015625-3.453125-.679687-.59375-1.976563-.890625-3.890625-.890625-1.023438 0-2.335938.164063-3.9375.484375-1.59375.3125-3.21875.746094-4.875 1.296875l-2.734375-8.046875c2.082031-.84375 4.34375-1.5 6.78125-1.96875 2.445313-.46875 4.671875-.703125 6.671875-.703125 5.363281 0 9.257812 1.03125 11.6875 3.09375 2.425781 2.0625 3.640625 5.226563 3.640625 9.484375zm-16.09375 3.453125c.769531 0 1.484375-.191406 2.140625-.578125.664062-.382813 1.207031-.875 1.625-1.46875v-5.046875h-1.328125c-1.792969 0-3.117187.324219-3.96875.96875-.84375.636719-1.265625 1.617188-1.265625 2.9375 0 .980469.253906 1.757812.765625 2.328125.507813.574219 1.1875.859375 2.03125.859375zm0 0" transform="translate(292.241869 114.818808)"/><path d="m13.078125 1.28125c-3.4375 0-6.085937-.96875-7.9375-2.90625-1.855469-1.9375-2.78125-4.671875-2.78125-8.203125v-37.65625l12.640625-1.28125v38.421875c0 1.15625.507812 1.734375 1.53125 1.734375.46875 0 .914062-.085937 1.34375-.265625l2.234375 9c-2 .769531-4.34375 1.15625-7.03125 1.15625zm0 0" transform="translate(327.409919 114.818808)"/></g></svg>